<svg width="25" height="25" viewBox="0 0 25 25" fill="none" xmlns="http://www.w3.org/2000/svg">
<mask id="mask0_308_704" style="mask-type:alpha" maskUnits="userSpaceOnUse" x="0" y="0" width="25" height="25">
<rect x="0.527344" y="0.0234375" width="24" height="24" fill="#D9D9D9"/>
</mask>
<g mask="url(#mask0_308_704)">
<path d="M4.52734 21.0234C3.97734 21.0234 3.50651 20.8276 3.11484 20.4359C2.72318 20.0443 2.52734 19.5734 2.52734 19.0234V8.02344C2.52734 7.47344 2.72318 7.0026 3.11484 6.61094C3.50651 6.21927 3.97734 6.02344 4.52734 6.02344H8.52734V4.02344C8.52734 3.47344 8.72318 3.0026 9.11484 2.61094C9.50651 2.21927 9.97734 2.02344 10.5273 2.02344H14.5273C15.0773 2.02344 15.5482 2.21927 15.9398 2.61094C16.3315 3.0026 16.5273 3.47344 16.5273 4.02344V6.02344H20.5273C21.0773 6.02344 21.5482 6.21927 21.9398 6.61094C22.3315 7.0026 22.5273 7.47344 22.5273 8.02344V19.0234C22.5273 19.5734 22.3315 20.0443 21.9398 20.4359C21.5482 20.8276 21.0773 21.0234 20.5273 21.0234H4.52734ZM4.52734 19.0234H20.5273V8.02344H4.52734V19.0234ZM10.5273 6.02344H14.5273V4.02344H10.5273V6.02344Z" fill="#d44b2f"/>
</g>
</svg>
