<svg width="24" height="24" viewBox="0 0 24 24" fill="none" xmlns="http://www.w3.org/2000/svg">
<g clip-path="url(#clip0_309_693)">
<path d="M12 0.959961C5.9094 0.959961 0.959961 5.9094 0.959961 12C0.959961 18.0905 5.9094 23.04 12 23.04C18.0905 23.04 23.04 18.0905 23.04 12C23.04 5.9094 18.0905 0.959961 12 0.959961ZM12 1.91996C17.5715 1.91996 22.08 6.42844 22.08 12C22.08 12.0342 22.0775 12.068 22.0771 12.1021C21.7701 12.0738 21.4154 12.0469 20.9643 12.0309C20.3266 12.0083 19.5226 12.0148 18.6112 12.06C18.645 11.8246 18.6687 11.5859 18.6693 11.3409C18.7158 10.442 18.414 9.60114 17.9231 8.8584C18.0417 8.44861 18.1808 7.92727 18.2156 7.3359C18.2552 6.66184 18.197 5.91441 17.6559 5.40934L17.5171 5.27996H17.3278C16.0399 5.27996 15.1584 5.8191 14.6193 6.24652C13.841 5.94525 12.9658 5.75996 12 5.75996C11.0286 5.75996 10.145 5.94784 9.33465 6.2484C8.79592 5.82077 7.91362 5.27996 6.62434 5.27996H6.4359L6.29715 5.4084C5.77002 5.89787 5.72145 6.62481 5.75434 7.29559C5.78333 7.88708 5.91439 8.42499 6.0309 8.85465C5.53172 9.61189 5.23215 10.4745 5.23215 11.3278C5.23215 11.5734 5.25499 11.8128 5.2884 12.0487C4.42163 12.0085 3.64897 12.0008 3.03559 12.0225C2.58453 12.0384 2.22977 12.0651 1.92277 12.0937C1.92249 12.0623 1.91996 12.0314 1.91996 12C1.91996 6.42844 6.42844 1.91996 12 1.91996ZM6.91027 6.30277C7.87871 6.39454 8.60732 6.82699 8.94465 7.12684L9.16965 7.32559L9.44715 7.21215C10.2062 6.89958 11.0529 6.71996 12 6.71996C12.947 6.71996 13.7939 6.90048 14.4956 7.20746L14.7768 7.33121L15.0065 7.12684C15.344 6.82688 16.0738 6.39431 17.0428 6.30277C17.1716 6.51636 17.2836 6.82012 17.2565 7.27965C17.2242 7.82959 17.0771 8.4286 16.9659 8.78434L16.8937 9.0159L17.0371 9.21184C17.5121 9.85949 17.7543 10.5604 17.7131 11.3015L17.7121 11.3146V11.3278C17.7121 12.5256 17.2808 13.4843 16.3621 14.1946C15.4435 14.905 13.9932 15.36 11.9521 15.36C9.91106 15.36 8.45988 14.905 7.54121 14.1946C6.62254 13.4843 6.19215 12.5256 6.19215 11.3278C6.19215 10.6247 6.44603 9.85129 6.91496 9.21184L7.05559 9.02059L6.98809 8.79277C6.87686 8.41459 6.74052 7.80193 6.7134 7.24871C6.69084 6.78857 6.79975 6.49773 6.91027 6.30277ZM4.26465 12.4903C4.60386 12.4946 4.99266 12.5129 5.38215 12.5325C5.41936 12.6821 5.4618 12.8294 5.5134 12.9731C3.92587 13.0066 2.73823 13.1662 2.00621 13.3031C1.97526 13.0629 1.95061 12.8208 1.93684 12.5756C2.47782 12.5242 3.24044 12.4772 4.26465 12.4903ZM19.7353 12.4978C20.7588 12.4848 21.5211 12.5319 22.0621 12.5831C22.0484 12.8248 22.0242 13.0635 21.9937 13.3003C21.2355 13.1612 20.0158 13.0016 18.3871 12.9759C18.4377 12.835 18.4798 12.6903 18.5165 12.5437C18.9462 12.5207 19.3654 12.5025 19.7353 12.4978ZM5.71777 13.4493C6.00421 14.0233 6.41349 14.5358 6.95434 14.954C7.6938 15.5258 8.65514 15.9253 9.82871 16.139C9.67518 16.2968 9.53554 16.47 9.41152 16.6528L9.38246 16.6275C9.3851 16.6244 9.14384 16.7452 8.7834 16.7775C8.42296 16.8097 7.97834 16.8 7.58434 16.8C6.99634 16.8 6.73734 16.5221 6.3234 16.0162C6.09418 15.7073 5.81473 15.4571 5.5434 15.2671C5.26557 15.0727 5.02857 14.9354 4.73527 14.8865L4.6959 14.88H4.65559C4.43159 14.88 4.21483 14.8962 4.01246 15.1275C3.91127 15.2431 3.84153 15.4572 3.88684 15.6384C3.93214 15.8196 4.04677 15.931 4.14934 15.9993C4.80536 16.4367 4.9213 17.3023 5.33246 18.0721C5.71642 18.8372 6.54508 19.2 7.39215 19.2H8.63996V21.5053C5.26451 20.3138 2.71901 17.3782 2.07934 13.7775C2.81417 13.6391 4.0447 13.4727 5.71777 13.4493ZM18.1837 13.4531C19.8938 13.4677 21.1589 13.6339 21.9215 13.7746C21.2827 17.3767 18.7363 20.3135 15.36 21.5053V19.0078C15.36 18.2472 15.1102 17.4085 14.6756 16.709C14.5436 16.4967 14.3884 16.2958 14.2153 16.1156C15.3266 15.896 16.2395 15.5034 16.95 14.954C17.4896 14.5367 17.898 14.0258 18.1837 13.4531ZM11.3756 16.3678H12.72C13.1101 16.3678 13.5266 16.6787 13.86 17.2153C14.1934 17.7518 14.4 18.4724 14.4 19.0078V21.7912C13.6307 21.9788 12.8274 22.08 12 22.08C11.1725 22.08 10.3692 21.9788 9.59996 21.7912V19.0078C9.59996 18.4842 9.82452 17.7654 10.1803 17.2265C10.536 16.6877 10.9854 16.3678 11.3756 16.3678ZM5.90809 16.935C6.32366 17.366 6.82677 17.76 7.58434 17.76C7.95834 17.76 8.42515 17.7734 8.86871 17.7337C8.87029 17.7336 8.87182 17.7329 8.8734 17.7328C8.81496 17.9008 8.77136 18.0698 8.73465 18.24H7.39215C6.80015 18.24 6.38193 18.0261 6.18934 17.6409L6.18559 17.6343L6.18277 17.6287C6.10386 17.4821 6.00027 17.189 5.90809 16.935Z" fill="#d44b2f"/>
</g>
<defs>
<clipPath id="clip0_309_693">
<rect width="24" height="24" fill="white"/>
</clipPath>
</defs>
</svg>
