<svg width="18" height="18" viewBox="0 0 24 24" fill="none" xmlns="http://www.w3.org/2000/svg">
<mask id="mask0_305_716" style="mask-type:alpha" maskUnits="userSpaceOnUse" x="0" y="0" width="24" height="24">
<rect width="24" height="24" fill="#D9D9D9"/>
</mask>
<g mask="url(#mask0_305_716)">
<path d="M14 22C12.6333 22 11.3417 21.7375 10.125 21.2125C8.90833 20.6875 7.84583 19.9708 6.9375 19.0625C6.02917 18.1542 5.3125 17.0917 4.7875 15.875C4.2625 14.6583 4 13.3667 4 12C4 10.6167 4.2625 9.32083 4.7875 8.1125C5.3125 6.90417 6.02917 5.84583 6.9375 4.9375C7.84583 4.02917 8.90833 3.3125 10.125 2.7875C11.3417 2.2625 12.6333 2 14 2C14.9 2 15.775 2.11667 16.625 2.35C17.475 2.58333 18.2667 2.91667 19 3.35C17.4833 4.23333 16.2708 5.42917 15.3625 6.9375C14.4542 8.44583 14 10.1333 14 12C14 13.8667 14.4542 15.5542 15.3625 17.0625C16.2708 18.5708 17.4833 19.7667 19 20.65C18.2667 21.0833 17.475 21.4167 16.625 21.65C15.775 21.8833 14.9 22 14 22ZM14 20H14.525C14.6917 20 14.85 19.9833 15 19.95C14.05 18.85 13.3125 17.6208 12.7875 16.2625C12.2625 14.9042 12 13.4833 12 12C12 10.5167 12.2625 9.09583 12.7875 7.7375C13.3125 6.37917 14.05 5.15 15 4.05C14.85 4.01667 14.6917 4 14.525 4H14C11.7833 4 9.89583 4.77917 8.3375 6.3375C6.77917 7.89583 6 9.78333 6 12C6 14.2167 6.77917 16.1042 8.3375 17.6625C9.89583 19.2208 11.7833 20 14 20Z" fill="#0362C8"/>
</g>
</svg>
