<svg width="25" height="25" viewBox="0 0 25 25" fill="none" xmlns="http://www.w3.org/2000/svg">
<mask id="mask0_308_698" style="mask-type:alpha" maskUnits="userSpaceOnUse" x="0" y="0" width="25" height="25">
<rect x="0.652344" y="0.533203" width="24" height="24" fill="#D9D9D9"/>
</mask>
<g mask="url(#mask0_308_698)">
<path d="M12.6523 12.5332C11.5523 12.5332 10.6107 12.1415 9.82734 11.3582C9.04401 10.5749 8.65234 9.6332 8.65234 8.5332C8.65234 7.4332 9.04401 6.49154 9.82734 5.7082C10.6107 4.92487 11.5523 4.5332 12.6523 4.5332C13.7523 4.5332 14.694 4.92487 15.4773 5.7082C16.2607 6.49154 16.6523 7.4332 16.6523 8.5332C16.6523 9.6332 16.2607 10.5749 15.4773 11.3582C14.694 12.1415 13.7523 12.5332 12.6523 12.5332ZM4.65234 20.5332V17.7332C4.65234 17.1665 4.79818 16.6457 5.08984 16.1707C5.38151 15.6957 5.76901 15.3332 6.25234 15.0832C7.28568 14.5665 8.33568 14.179 9.40234 13.9207C10.469 13.6624 11.5523 13.5332 12.6523 13.5332C13.7523 13.5332 14.8357 13.6624 15.9023 13.9207C16.969 14.179 18.019 14.5665 19.0523 15.0832C19.5357 15.3332 19.9232 15.6957 20.2148 16.1707C20.5065 16.6457 20.6523 17.1665 20.6523 17.7332V20.5332H4.65234ZM6.65234 18.5332H18.6523V17.7332C18.6523 17.5499 18.6065 17.3832 18.5148 17.2332C18.4232 17.0832 18.3023 16.9665 18.1523 16.8832C17.2523 16.4332 16.344 16.0957 15.4273 15.8707C14.5107 15.6457 13.5857 15.5332 12.6523 15.5332C11.719 15.5332 10.794 15.6457 9.87734 15.8707C8.96068 16.0957 8.05234 16.4332 7.15234 16.8832C7.00234 16.9665 6.88151 17.0832 6.78984 17.2332C6.69818 17.3832 6.65234 17.5499 6.65234 17.7332V18.5332ZM12.6523 10.5332C13.2023 10.5332 13.6732 10.3374 14.0648 9.9457C14.4565 9.55404 14.6523 9.0832 14.6523 8.5332C14.6523 7.9832 14.4565 7.51237 14.0648 7.1207C13.6732 6.72904 13.2023 6.5332 12.6523 6.5332C12.1023 6.5332 11.6315 6.72904 11.2398 7.1207C10.8482 7.51237 10.6523 7.9832 10.6523 8.5332C10.6523 9.0832 10.8482 9.55404 11.2398 9.9457C11.6315 10.3374 12.1023 10.5332 12.6523 10.5332Z" fill="#AC3B61"/>
</g>
</svg>
